<svg width="24" height="25" viewBox="0 0 24 25" fill="none" xmlns="http://www.w3.org/2000/svg">
<path fill-rule="evenodd" clip-rule="evenodd" d="M2.58105 5.25C2.58105 4.83579 2.91684 4.5 3.33105 4.5H16.0249C16.4391 4.5 16.7749 4.83579 16.7749 5.25C16.7749 5.66421 16.4391 6 16.0249 6H3.33105C2.91684 6 2.58105 5.66421 2.58105 5.25ZM6.70575 19.7509C6.70575 19.3367 7.04154 19.0009 7.45575 19.0009H20.1496C20.5638 19.0009 20.8996 19.3367 20.8996 19.7509C20.8996 20.1652 20.5638 20.5009 20.1496 20.5009H7.45575C7.04154 20.5009 6.70575 20.1652 6.70575 19.7509ZM3.33105 11.7505C2.91684 11.7505 2.58105 12.0863 2.58105 12.5005C2.58105 12.9147 2.91684 13.2505 3.33105 13.2505H20.1522C20.5664 13.2505 20.9022 12.9147 20.9022 12.5005C20.9022 12.0863 20.5664 11.7505 20.1522 11.7505H3.33105Z" fill="#CE1620"/>
</svg>
