<svg width="42" height="43" viewBox="0 0 42 43" fill="none" xmlns="http://www.w3.org/2000/svg">
<path d="M23.1046 0.585339C22.916 0.579064 22.7282 0.582202 22.5412 0.603379L22.5561 0.671618C23.059 0.710835 23.5532 0.726522 24.0498 0.828488C26.5415 1.17752 28.9553 2.00109 31.1484 3.23017C32.7946 4.17296 34.3252 5.29301 35.6657 6.63818C35.7875 6.76132 35.9313 6.84838 36.0767 6.94015C36.5827 7.39821 37.0102 7.94647 37.4431 8.47199C39.853 11.4815 41.3625 15.1907 41.8332 19.0074C41.7074 19.3705 41.8332 19.6835 41.8442 20.0506C41.8709 21.02 41.8677 21.9895 41.8371 22.959C41.7837 23.7982 41.6846 24.6328 41.5346 25.4595C41.401 25.9889 41.3083 26.527 41.1676 27.0548C40.7001 28.7224 40.0636 30.3828 39.1671 31.87C38.995 32.1704 38.8488 32.4716 38.6257 32.7398C38.1699 33.2724 37.8014 33.863 37.4164 34.4309C36.7917 35.1611 36.1474 35.8843 35.4481 36.5447C34.9114 37.0875 34.3394 37.5918 33.7288 38.0514C33.2142 38.4334 32.672 38.7691 32.1534 39.144C31.8477 39.344 31.5216 39.5048 31.2089 39.6939C31.0486 39.799 30.8789 39.81 30.6958 39.8382C30.7115 39.8751 30.7272 39.9111 30.7429 39.948C29.7867 40.4759 28.773 40.9167 27.7319 41.2516C26.8165 41.5442 25.8846 41.8187 24.937 41.9818C24.1881 42.0861 23.4511 42.2375 22.6936 42.2775C21.4663 42.403 20.2326 42.3818 19.0076 42.2446C17.9044 42.1763 16.8703 41.9363 15.7962 41.7018C15.3609 41.6085 14.9476 41.4594 14.5272 41.319C13.6275 41.0351 12.7427 40.6814 11.9004 40.2578C10.9716 39.8484 10.1018 39.2868 9.25318 38.7338C8.79351 38.4381 8.3802 38.0836 7.92918 37.7785C7.36029 37.4138 6.87312 36.8875 6.35766 36.4451C5.8477 36.0388 5.5609 35.3039 4.91579 35.0427C4.77121 34.9038 4.63684 34.7556 4.50876 34.6011C3.01896 32.71 1.83954 30.5836 1.07971 28.298C0.618465 26.8736 0.264873 25.3897 0.115579 23.8994C-0.0297869 22.7582 -0.00778564 21.591 0.0212875 20.4428C0.11715 18.7642 0.418882 17.0936 0.904482 15.4833C1.05063 15.0088 1.18578 14.5429 1.3893 14.0942C1.69574 13.7617 1.74996 13.3781 1.95111 12.9804C2.31178 12.233 2.67244 11.4784 3.10697 10.7709C3.29555 10.4721 3.49513 10.1921 3.59571 9.84853L3.62557 9.8046C3.77408 9.68616 3.9108 9.56145 4.01609 9.40223C4.48126 8.72847 4.99594 8.09079 5.55225 7.48998C6.26572 6.6468 7.07506 5.93618 7.91739 5.22321C8.22698 4.95339 8.56171 4.78632 8.78801 4.43023C8.85873 4.38003 8.93024 4.3314 9.00253 4.28277C9.45434 4.18002 9.73093 3.88432 10.1183 3.65764C11.3197 2.918 12.5966 2.28503 13.93 1.81755C14.3017 1.67088 14.6655 1.61362 14.9939 1.36969C15.5731 1.15478 16.1938 1.0332 16.7981 0.905354C18.8764 0.48102 20.994 0.418272 23.1046 0.585339ZM28.9082 7.99589C28.8367 8.10021 28.7699 8.20688 28.7039 8.31433C28.5955 8.38885 28.4807 8.4712 28.355 8.51434C28.1719 8.4563 27.9975 8.35434 27.827 8.26492C26.162 7.38253 24.3508 6.81309 22.4618 6.71269C21.5032 6.66798 20.5131 6.6719 19.5624 6.81073C18.3963 6.99976 17.2554 7.33625 16.1749 7.81549C16.0422 7.87196 15.9596 7.97471 15.8638 8.07668C15.3963 8.36845 14.8965 8.5967 14.4423 8.91358C14.0966 9.12692 13.8027 9.42419 13.4444 9.614C13.3407 9.44694 13.2661 9.26967 13.1883 9.09006C13.1246 8.91907 13.0555 8.76298 12.9313 8.62572C12.7192 8.381 12.5463 8.12295 12.2493 7.9802C11.7959 7.75195 11.3276 7.51273 10.8318 7.40684C10.2755 7.26801 9.67828 7.32056 9.09917 7.32135C8.86109 7.31821 8.66465 7.36919 8.45171 7.47194C8.01718 7.68058 7.59287 7.84765 7.20785 8.11982C6.5431 8.57317 5.98128 9.20536 5.6159 9.92147C5.10437 11.0251 4.96529 12.3522 5.34324 13.5177C5.46032 13.8613 5.49568 14.1868 5.81863 14.4048C5.86656 14.477 5.91213 14.5507 5.95535 14.6252C6.00642 14.7884 6.03392 14.9437 6.15729 15.0707C6.59103 15.5531 7.14027 15.9382 7.74924 16.1633C7.92761 16.2575 8.21912 16.3296 8.31656 16.5186C8.05883 17.3736 7.71231 18.1893 7.43886 19.0364C7.33829 19.3023 7.20392 19.5353 7.15049 19.8168C7.0892 20.122 7.03341 20.4271 6.93519 20.7243C6.75525 21.2867 6.65232 21.8687 6.46845 22.4303C6.25394 23.2241 6.07793 24.0304 5.95771 24.8438C5.92863 24.9904 5.97814 25.1167 6.00249 25.2595C5.99542 25.33 5.98835 25.4006 5.97971 25.4704C5.95063 25.4108 5.91842 25.352 5.88463 25.2948C5.73455 25.6681 5.72826 26.0203 5.6434 26.4109C5.59468 26.7082 5.49175 27.0172 5.47996 27.3145C5.48625 27.5082 5.62061 27.7011 5.67012 27.887C5.58604 28.0384 5.45718 28.1678 5.3566 28.309C5.11537 28.6322 4.97236 29.0251 4.76885 29.3804C4.54098 29.7805 4.37047 30.1993 4.19603 30.6236C4.1206 30.8213 4.03181 31.0519 4.04674 31.2652C4.07345 31.4817 4.22275 31.6872 4.33511 31.87C4.51034 32.1288 4.60698 32.4174 4.80578 32.6606C5.00065 32.8739 5.12087 33.1249 5.29452 33.3508C5.46425 33.5477 5.66226 33.7006 5.8202 33.9116C6.00014 34.1532 6.16672 34.4011 6.37887 34.6168C6.59024 34.8497 6.84404 35.0458 7.04677 35.2858C7.11827 35.3666 7.09156 35.4921 7.10413 35.5949C7.22514 35.5752 7.29428 35.5368 7.39643 35.6349C8.15705 36.2717 8.89645 36.9259 9.71993 37.4836C10.4365 37.9887 11.2089 38.4193 11.9727 38.8483C12.7585 39.2374 13.5749 39.5699 14.3913 39.8884C16.1247 40.4876 17.9319 40.8626 19.7635 40.9794C20.3756 41.0563 20.9767 41.0328 21.5983 41.028C22.476 40.9575 23.3497 40.9026 24.2164 40.7339C26.5933 40.3512 28.8563 39.5135 30.9543 38.3432C31.9601 37.7495 32.9038 37.0639 33.7988 36.3157C34.4423 35.7243 35.089 35.238 35.6076 34.5172C35.6602 34.4309 35.7011 34.336 35.7451 34.245L35.8056 34.165C35.951 34.0701 36.0916 33.9799 36.1993 33.841C36.5639 33.3869 36.9064 32.9171 37.22 32.4269C37.3017 32.2904 37.3952 32.1327 37.414 31.9727C37.4235 31.779 37.3669 31.6056 37.3103 31.4237C36.9984 30.5962 36.6204 29.8008 36.1435 29.0557C35.9462 28.7506 35.6657 28.5302 35.5039 28.2157C35.452 28.1192 35.4559 28.0447 35.4826 27.9412C35.5447 27.7082 35.6563 27.4862 35.7797 27.2799C35.8339 27.5702 35.8488 27.8988 35.9706 28.1678L35.9973 28.2345L36.072 28.3247C36.336 28.0361 36.4531 27.6706 36.5819 27.309C36.8169 26.6305 36.864 25.9473 36.9363 25.2328C36.9599 24.7441 36.9811 24.2406 36.9159 23.7543L36.8428 23.7347C36.7941 24.29 36.8609 24.8461 36.7909 25.4022C36.8239 24.8281 36.7964 24.2586 36.8012 23.6845C36.9402 23.217 36.8232 22.7989 36.7839 22.3291C36.7218 21.6954 36.5756 21.0828 36.4436 20.4616C36.3297 19.9416 36.193 19.4247 36.0201 18.9211C35.8912 18.5674 35.8268 18.227 35.5644 17.9391C35.5141 17.8167 35.4646 17.6936 35.4182 17.5689C35.4111 17.1132 35.1149 16.7571 34.9248 16.3296C34.7841 16.0167 34.4997 15.7265 34.4368 15.39C34.81 15.1225 35.2296 14.9539 35.5746 14.6354C36.1938 14.033 36.5686 13.2628 36.776 12.433C36.9874 11.4933 36.8672 10.5811 36.6259 9.66185C36.4593 9.12928 36.1568 8.73553 35.881 8.26178C35.7608 8.17786 35.6272 8.15041 35.5211 8.04216C34.7715 7.32605 33.783 6.78093 32.7506 6.6319C32.0072 6.58092 31.2749 6.55817 30.5622 6.79348C29.9886 6.94486 29.4967 7.25938 29.0826 7.67901C29.0009 7.76529 28.9593 7.88922 28.9082 7.99589Z" fill="#CE1620"/>
<path d="M22.54 0.603434C22.7271 0.582257 22.9148 0.579119 23.1034 0.585394C25.0113 0.784619 26.8892 1.22699 28.6753 1.9282C31.2376 2.94708 33.6106 4.47891 35.5876 6.40057C35.7636 6.56843 35.9231 6.75118 36.0755 6.94021C35.9302 6.84844 35.7864 6.76138 35.6646 6.63823C34.3241 5.29307 32.7934 4.17302 31.1473 3.23023C28.9542 2.00115 26.5403 1.17758 24.0487 0.828543C23.5521 0.726577 23.0579 0.71089 22.555 0.671673L22.54 0.603434Z" fill="#CE1620"/>
<path d="M14.9934 1.37012C14.6649 1.61405 14.3011 1.67131 13.9295 1.81798C12.596 2.28545 11.3192 2.91843 10.1177 3.65807C9.73035 3.88475 9.45377 4.18045 9.00195 4.2832C9.24947 4.07299 9.51505 3.89102 9.79164 3.7216C10.9546 2.97019 12.2063 2.35134 13.4957 1.84857C13.99 1.66582 14.4756 1.48071 14.9934 1.37012Z" fill="#CE1620"/>
<path d="M8.78744 4.4303C8.56114 4.78639 8.22641 4.95346 7.91682 5.22328C7.07449 5.93625 6.26515 6.64687 5.55168 7.49005C4.99537 8.09086 4.48069 8.72854 4.01552 9.4023C3.91023 9.56152 3.77351 9.68624 3.625 9.80467C3.80101 9.4172 4.06424 9.10346 4.31725 8.76698C5.30731 7.47044 6.44902 6.28843 7.69995 5.2421C8.05119 4.95268 8.39221 4.6609 8.78744 4.4303Z" fill="#CE1620"/>
<path d="M32.7506 6.632C33.7831 6.78103 34.7715 7.32615 35.5212 8.04226C35.6272 8.1505 35.7608 8.17796 35.881 8.26188C36.1568 8.73563 36.4594 9.12937 36.6259 9.66195C36.8672 10.5812 36.9874 11.4934 36.776 12.4331C36.5686 13.2629 36.1938 14.0331 35.5746 14.6355C35.2296 14.954 34.81 15.1226 34.4368 15.3901C34.4997 15.7266 34.7841 16.0168 34.9248 16.3297C35.1149 16.7572 35.4112 17.1133 35.4182 17.569C35.1503 17.0898 34.9468 16.5823 34.6592 16.1132C34.5099 15.8458 34.3064 15.5924 34.1964 15.3069C34.5507 15.1367 34.9059 14.994 35.2186 14.7461C36.046 14.1069 36.5678 13.0841 36.699 12.0566C36.7776 11.3405 36.7548 10.6259 36.5254 9.93804C36.1678 8.79367 35.3247 7.88696 34.2938 7.30262C32.9564 6.5465 31.2482 6.49709 29.8935 7.23595C29.5148 7.43674 29.2327 7.7246 28.9082 7.99599C28.9593 7.88931 29.0009 7.76539 29.0826 7.67911C29.4967 7.25948 29.9886 6.94496 30.5622 6.79358C31.2749 6.55827 32.0072 6.58102 32.7506 6.632Z" fill="#CE1620"/>
<path d="M22.4613 6.71275C24.3503 6.81315 26.1615 7.38259 27.8265 8.26498C27.997 8.3544 28.1714 8.45636 28.3545 8.5144C28.4802 8.47127 28.595 8.38891 28.7034 8.3144C28.6146 8.44774 28.5384 8.59049 28.4402 8.71598C28.3781 8.68775 28.3168 8.65716 28.2563 8.625C26.3115 7.50102 24.0776 6.86727 21.8311 6.80687C20.2777 6.73707 18.6936 7.03277 17.2274 7.5371C16.7622 7.6924 16.3261 7.91595 15.8633 8.07674C15.9591 7.97477 16.0416 7.87202 16.1744 7.81555C17.2549 7.33631 18.3958 6.99982 19.5619 6.81079C20.5126 6.67196 21.5027 6.66804 22.4613 6.71275Z" fill="#CE1620"/>
<path d="M34.2937 7.30268C35.3247 7.88702 36.1678 8.79373 36.5253 9.9381C36.7547 10.626 36.7775 11.3405 36.6989 12.0566C36.5677 13.0841 36.046 14.1069 35.2186 14.7462C34.9058 14.994 34.5507 15.1368 34.1963 15.307C34.3063 15.5925 34.5098 15.8458 34.6591 16.1133C34.9467 16.5823 35.1502 17.0898 35.4182 17.5691C35.4645 17.6938 35.514 17.8169 35.5643 17.9393C35.6735 18.3205 35.8142 18.6899 35.9415 19.0648C36.2141 19.9025 36.4035 20.7802 36.5591 21.6461C36.6809 22.3238 36.7233 23.003 36.8011 23.6846C36.7964 24.2588 36.8239 24.8282 36.7909 25.4024C36.6903 26.3695 36.5669 27.4158 35.9973 28.2347L35.9705 28.168C35.9815 27.6527 35.899 27.1523 35.8008 26.6479C35.7922 26.586 35.7647 26.5365 35.7175 26.5012C35.6641 26.8487 35.6397 27.1828 35.5101 27.5146C35.4394 27.7178 35.3286 27.9115 35.2775 28.1201C35.4292 28.4002 35.6547 28.6394 35.8283 28.9061C36.3941 29.761 36.82 30.663 37.2121 31.6066C37.2616 31.758 37.3543 31.9258 37.2608 32.0788C36.8687 32.8506 36.2707 33.4608 35.8055 34.1651L35.745 34.2451C35.3962 34.5314 35.1329 34.8899 34.8061 35.2005C33.8356 36.1527 32.7709 37.0131 31.6347 37.7606C29.9744 38.8265 28.1577 39.6219 26.2593 40.1584C23.0888 41.0219 19.7124 41.1239 16.5104 40.3592C14.0816 39.8156 11.7581 38.7418 9.71987 37.3206C7.55353 35.8013 5.70621 33.8192 4.32877 31.5634C4.2227 31.3776 4.11033 31.227 4.20148 31.005C4.70908 29.5516 5.49877 28.2119 6.63969 27.164C6.98307 26.9115 6.89821 26.4401 6.91628 26.0667C6.45347 26.5287 6.08888 27.0895 5.65199 27.5766C5.70778 26.8707 5.86101 26.1593 5.97966 25.4706C5.9883 25.4008 5.99537 25.3302 6.00244 25.2596C6.5619 22.425 7.21016 19.6805 8.32436 17.0028C8.42808 16.7572 8.57266 16.5063 8.62688 16.2451C8.179 16.1596 7.74604 16.0764 7.34531 15.8458C6.7717 15.5509 6.37489 15.0999 5.9553 14.6254C5.91208 14.5509 5.86651 14.4771 5.81858 14.405C5.62764 13.9391 5.42491 13.4943 5.33455 12.9939C5.15068 11.9664 5.27404 10.8942 5.751 9.96006C6.22403 9.04551 7.0035 8.26978 7.94406 7.83996C8.95533 7.35994 10.1803 7.26582 11.2372 7.65015C11.6183 7.79133 11.9868 7.98036 12.3137 8.22194C12.6374 8.4596 12.9077 8.79922 13.1882 9.09022C13.266 9.26983 13.3407 9.4471 13.4444 9.61416C13.8027 9.42435 14.0966 9.12708 14.4423 8.91374C14.8965 8.59686 15.3962 8.36861 15.8637 8.07683C16.3265 7.91604 16.7626 7.6925 17.2278 7.5372C18.694 7.03286 20.2781 6.73716 21.8316 6.80697C24.0781 6.86737 26.312 7.50112 28.2567 8.6251C28.3172 8.65725 28.3785 8.68784 28.4406 8.71608C28.5388 8.59058 28.615 8.44783 28.7038 8.31449C28.7698 8.20704 28.8366 8.10036 28.9081 7.99605C29.2327 7.72466 29.5147 7.4368 29.8935 7.23601C31.2481 6.49715 32.9564 6.54657 34.2937 7.30268ZM32.6774 10.3342C33.152 10.6079 33.838 10.5719 34.315 10.9005C34.3118 11.1789 33.9598 11.4237 33.8349 11.6684C34.1484 11.8111 34.4642 11.8135 34.7856 11.906C34.8563 11.9374 35.0151 11.9641 35.0245 12.0551C34.8744 12.379 34.5397 12.6143 34.337 12.9131C34.5625 13.0081 34.8013 13.0677 35.0214 13.1735C34.9459 13.361 34.8375 13.5179 34.7361 13.6951C35.2068 13.5296 35.4952 13.1586 35.7112 12.728C36.0421 12.1076 36.0648 11.3727 35.9289 10.6958C35.7183 9.6071 35.0426 8.55999 34.08 7.9882C33.3768 7.60309 32.5776 7.32699 31.7659 7.37562C31.3291 7.40072 30.8411 7.487 30.4726 7.73643C30.2541 7.88624 30.086 8.09095 30.086 8.36783C30.0734 8.58666 30.2376 8.71843 30.3917 8.84236C30.823 9.17336 31.4006 9.30748 31.9215 9.43062C32.2115 9.50278 32.5399 9.52475 32.8094 9.65417C32.9799 9.82437 32.7199 10.1444 32.6774 10.3342ZM6.87857 24.7396C6.84556 24.8816 6.82278 25.022 6.8102 25.1663C6.90214 25.0659 6.98307 24.96 7.05458 24.8439C7.45924 24.2164 7.93384 23.5827 8.52473 23.1176L8.5208 23.254C8.12007 23.8478 7.9637 24.4933 7.78769 25.1773C7.55589 26.1302 7.69654 27.1577 8.08471 28.0503C8.25129 28.3868 8.43437 28.7892 8.73139 29.0284C8.63395 28.2323 8.54909 27.1742 9.01033 26.4691C9.04569 26.7664 9.04491 27.066 9.07634 27.364C9.16434 28.1249 9.49043 28.87 10.046 29.4057C9.91081 28.8159 9.75366 28.2331 9.63894 27.6386L9.66566 27.5107C9.9171 27.8503 10.0279 28.2158 10.2149 28.5892C10.7437 29.6763 11.5617 30.6089 12.6083 31.2223C14.0109 32.0482 15.5573 32.3227 17.1642 32.3996C17.0384 32.0701 16.8176 31.7666 16.6503 31.4497C17.5728 32.4184 18.7616 33.1298 20.073 33.4161C21.2949 33.6545 22.6771 33.5275 23.7803 32.9251C24.5032 32.6121 25.0917 32.129 25.6669 31.6027L25.6622 31.7368C25.5152 31.9423 25.3801 32.1501 25.2819 32.3847C26.708 32.3054 28.263 32.0427 29.4605 31.2136C30.0074 30.892 30.5354 30.4701 30.8922 29.9414C31.2128 29.579 31.4516 29.1688 31.7157 28.7672C31.6764 29.0582 31.619 29.3641 31.5027 29.6347C31.41 29.8543 31.2756 30.0347 31.1672 30.2465C32.349 29.5853 33.0035 28.2762 33.0475 26.9507C33.3131 27.4464 33.3155 28.1013 33.262 28.6472C33.2275 29.0402 33.0546 29.3641 32.9116 29.7218C33.9095 29.0269 34.612 27.8895 34.8367 26.6997C34.9938 25.8134 34.9569 24.9035 34.6403 24.0549C34.5216 23.6972 34.3252 23.3834 34.1664 23.0446C35.0779 23.738 35.738 24.7757 36.0578 25.8691C36.0916 25.9718 36.1285 26.0738 36.167 26.175C36.1159 25.2847 36.1198 24.3906 36.0279 23.5035C35.8849 21.712 35.5219 19.9449 34.8603 18.2695C34.392 17.1063 33.7846 15.9352 32.9744 14.9713C32.7379 14.6858 32.4574 14.4505 32.1958 14.1909C32.6169 14.1752 32.9996 14.2912 33.3972 14.4065C33.1819 13.932 32.8534 13.5485 32.4771 13.1939C31.9671 12.6873 31.2937 12.2982 30.5818 12.1711C30.2259 12.1045 29.8793 12.1304 29.5218 12.1131C29.7756 11.9398 30.0561 11.7978 30.3429 11.6888C30.7256 11.5492 31.1075 11.5507 31.5082 11.5452C30.7853 10.9915 29.8762 10.9115 29.004 11.0738C28.63 11.1444 28.3023 11.3068 27.9472 11.4284C28.2827 10.9099 28.8115 10.5687 29.3584 10.306C28.7903 9.75692 28.0407 9.34748 27.3437 8.98276C25.4146 8.01487 23.2224 7.52936 21.0631 7.61407C20.3174 7.5772 19.615 7.70976 18.8897 7.86192C17.0911 8.25174 15.3773 9.06512 13.9481 10.2236C12.1471 11.6394 10.7539 13.6434 9.75681 15.6866C8.32829 18.5283 7.49146 21.6328 6.87857 24.7396ZM7.69261 14.6505C7.5221 14.2716 7.02707 13.9869 7.00114 13.5696C7.39088 13.39 7.80969 13.3783 8.19078 13.1594C7.92913 12.928 7.64468 12.7939 7.44117 12.5304C7.77276 12.2308 8.18843 12.1853 8.54673 11.9523C8.55538 11.7256 8.29215 11.4872 8.19393 11.284C8.59938 11.1076 9.08891 11.088 9.4645 10.8636C9.38671 10.6205 9.11955 10.2581 9.25628 10.0103C9.46214 9.69338 9.96267 9.60554 10.2927 9.47063C10.5669 9.36552 10.9032 9.17649 10.9527 8.85726C10.992 8.61333 10.8066 8.46117 10.6251 8.33645C10.1355 8.01644 9.46136 8.0282 8.91526 8.17645C7.50324 8.52313 6.36311 9.73731 6.06845 11.1531C5.88536 11.8872 5.93094 12.6747 6.20045 13.3822C6.38354 13.8653 6.74813 14.2575 7.19287 14.514C7.34688 14.605 7.5166 14.6332 7.69261 14.6505ZM28.4485 33.3455C28.7761 33.5635 29.1226 33.6726 29.477 33.8357C30.262 34.202 31.08 34.544 31.9152 34.7793C32.3451 34.9024 32.7906 34.9032 33.2204 35.0287C33.0821 35.1479 32.9344 35.2554 32.7976 35.377C33.1198 35.4766 33.5056 35.4272 33.8215 35.3197C34.1767 35.1746 34.333 34.6624 34.4957 34.344C34.8948 33.5431 35.0198 32.6953 35.0905 31.8129C35.1062 31.5532 35.1101 31.2944 35.0819 31.0356C34.9216 31.1046 34.8178 31.2991 34.7094 31.4301C34.5381 30.9289 34.7015 30.405 34.5743 29.9124C34.2867 30.1595 34.0541 30.4622 33.7736 30.7195C32.3419 32.0976 30.3807 32.9525 28.4485 33.3455ZM31.1122 37.3959C30.867 37.0531 30.5237 36.748 30.2259 36.4554C30.1363 36.3762 30.1072 36.2719 30.064 36.1652C30.4797 36.4782 30.8034 36.868 31.1507 37.2508C31.1703 36.9943 31.0375 36.7645 30.9338 36.5378C30.5048 35.6546 29.6255 34.9777 28.7628 34.5487C27.357 33.8404 25.784 33.7322 24.2407 33.9204C23.7229 34.0004 23.2043 34.093 22.6975 34.2255C23.143 34.2389 23.5862 34.1989 24.0325 34.202C24.6257 34.1996 25.2072 34.2585 25.7957 34.3291C25.2921 34.4804 24.8568 34.3236 24.3492 34.3283C23.686 34.3259 23.0181 34.3675 22.362 34.4648C21.5118 34.5942 20.6498 34.6616 19.7894 34.6569C18.6885 34.6577 17.5649 34.6083 16.4782 34.424C14.5523 34.1283 12.6853 33.4843 10.9999 32.5062C10.4333 32.1713 9.84795 31.8529 9.23977 31.5995C8.84061 31.4395 8.40451 31.343 7.98492 31.4944C7.71619 31.598 7.45138 31.7391 7.33509 32.0192C7.13079 32.4827 7.2023 32.9753 7.4231 33.4177C8.06113 34.7244 9.15963 35.7919 10.3257 36.6374C10.9818 37.0861 11.6473 37.5606 12.3687 37.8971C12.7215 38.0681 13.0664 38.2516 13.4247 38.4069C15.0599 39.0979 16.7556 39.6125 18.5204 39.8391C20.3764 40.0729 22.2716 40.0297 24.1213 39.7544C25.1278 39.5905 26.132 39.3419 27.1323 39.1418C28.1735 38.9058 29.1792 38.5473 30.1308 38.0618C30.4679 37.8767 30.8537 37.6861 31.1122 37.3959Z" fill="#201414"/>
<path d="M9.09874 7.32155C9.67784 7.32077 10.275 7.26822 10.8313 7.40705C11.3272 7.51294 11.7955 7.75216 12.2489 7.98041C12.5459 8.12316 12.7187 8.38121 12.9309 8.62593C13.055 8.76319 13.1242 8.91928 13.1878 9.09027C12.9073 8.79927 12.637 8.45965 12.3133 8.22199C11.9864 7.98041 11.6179 7.79138 11.2368 7.6502C10.1799 7.26587 8.95494 7.35999 7.94367 7.84001C7.00312 8.26983 6.22364 9.04556 5.75061 9.96011C5.27366 10.8943 5.15029 11.9665 5.33416 12.994C5.42452 13.4944 5.62725 13.9391 5.81819 14.405C5.49524 14.187 5.45988 13.8615 5.34281 13.5179C4.96485 12.3524 5.10393 11.0253 5.61546 9.92168C5.98084 9.20557 6.54266 8.57338 7.20741 8.12002C7.59244 7.84785 8.01675 7.68079 8.45127 7.47215C8.66421 7.3694 8.86065 7.31842 9.09874 7.32155Z" fill="#CE1620"/>
<path d="M31.7656 7.37567C32.5773 7.32704 33.3764 7.60313 34.0797 7.98825C35.0422 8.56004 35.718 9.60715 35.9286 10.6958C36.0645 11.3727 36.0417 12.1077 35.7109 12.7281C35.4948 13.1587 35.2064 13.5297 34.7358 13.6952C34.8371 13.5179 34.9456 13.3611 35.021 13.1736C34.801 13.0677 34.5621 13.0081 34.3366 12.9132C34.5393 12.6144 34.8741 12.379 35.0241 12.0551C35.0147 11.9641 34.856 11.9375 34.7853 11.9061C34.4639 11.8135 34.148 11.8112 33.8345 11.6684C33.9594 11.4237 34.3115 11.179 34.3146 10.9005C33.8376 10.5719 33.1517 10.608 32.6771 10.3342C32.7195 10.1444 32.9796 9.82442 32.8091 9.65421C32.5396 9.5248 32.2111 9.50283 31.9212 9.43067C31.4002 9.30753 30.8227 9.17341 30.3913 8.84241C30.2373 8.71848 30.0731 8.58671 30.0856 8.36788C30.0856 8.091 30.2538 7.88629 30.4722 7.73647C30.8408 7.48705 31.3287 7.40077 31.7656 7.37567Z" fill="#3B2B25"/>
<path d="M21.0625 7.61413C20.7662 7.72708 20.4692 7.80473 20.1581 7.86356C19.1837 8.06592 18.3021 8.45261 17.4236 8.90753C16.465 9.42285 15.5457 10.0441 14.7489 10.7868C14.3434 11.2261 13.8995 11.6269 13.5035 12.0732C13.1373 12.0818 12.7664 12.0143 12.4089 12.0645C12.2769 12.0787 12.2203 12.1689 12.1425 12.2622C11.4872 13.1305 10.8287 14.0364 10.3423 15.0114C9.63752 16.1918 9.18571 17.4248 8.68754 18.6829C8.37245 19.5951 8.07386 20.5167 7.84127 21.4532C7.74462 21.8007 7.62754 22.1403 7.55604 22.4941C7.44053 23.0541 7.27081 23.5521 7.32031 24.1349C7.73284 23.7027 7.99292 23.2274 8.55788 22.9419C8.77475 23.0455 8.74725 23.1561 8.64196 23.338L8.52017 23.2541L8.5241 23.1176C7.93321 23.5827 7.45861 24.2165 7.05394 24.844C6.99501 24.8095 6.93608 24.775 6.87793 24.7397C7.49082 21.6328 8.32766 18.5284 9.75617 15.6867C10.7533 13.6434 12.1465 11.6394 13.9474 10.2237C15.3767 9.06518 17.0905 8.25181 18.8891 7.86199C19.6143 7.70983 20.3168 7.57727 21.0625 7.61413Z" fill="#CE1620"/>
<path d="M21.0631 7.61384C23.2224 7.52913 25.4146 8.01465 27.3437 8.98254C28.0407 9.34726 28.7903 9.75669 29.3584 10.3057C28.8115 10.5685 28.2827 10.9097 27.9471 11.4281C28.3023 11.3066 28.63 11.1442 29.004 11.0736C29.8762 10.9113 30.7853 10.9913 31.5082 11.545C31.1075 11.5505 30.7256 11.5489 30.3429 11.6885C30.0561 11.7976 29.7756 11.9395 29.5218 12.1129C29.8793 12.1301 30.2259 12.1043 30.5818 12.1709C31.2937 12.298 31.9671 12.687 32.4771 13.1937C32.8534 13.5482 33.1819 13.9318 33.3972 14.4063C32.9996 14.291 32.6169 14.1749 32.1958 14.1906C32.4574 14.4502 32.7379 14.6856 32.9744 14.9711C33.7846 15.935 34.392 17.1061 34.8603 18.2693C35.5219 19.9446 35.8849 21.7118 36.0279 23.5032C36.1198 24.3903 36.1159 25.2845 36.167 26.1747C36.1285 26.0735 36.0916 25.9716 36.0578 25.8688C35.738 24.7754 35.0779 23.7378 34.1664 23.0444C34.3252 23.3832 34.5216 23.697 34.6403 24.0546C34.9569 24.9033 34.9938 25.8131 34.8367 26.6995C34.612 27.8893 33.9095 29.0266 32.9116 29.7216C33.0546 29.3639 33.2275 29.04 33.262 28.647C33.3155 28.1011 33.3131 27.4462 33.0475 26.9505C33.0035 28.276 32.349 29.5851 31.1672 30.2463C31.2756 30.0345 31.41 29.8541 31.5027 29.6345C31.619 29.3639 31.6764 29.058 31.7157 28.767C31.4516 29.1686 31.2128 29.5788 30.8922 29.9412C30.5904 30.0353 30.3398 30.2032 30.0821 30.3796C29.5415 30.6808 28.9498 30.9052 28.3699 31.1201C27.4969 31.4009 26.5626 31.5703 25.6622 31.7366L25.6669 31.6024C25.0917 32.1287 24.5032 32.6119 23.7803 32.9249C23.6538 32.8621 23.5453 32.7892 23.3984 32.7962C22.6456 32.7876 21.8724 32.8817 21.1401 32.6605C20.7488 32.5405 20.3473 32.3844 20.0118 32.146C19.8664 32.0401 19.6809 31.8558 19.6817 31.6652C19.7603 31.3875 20.0558 31.2369 20.3158 31.1663C20.9319 31.0016 21.6461 31.0856 22.2834 31.0738C22.8083 31.1083 23.2986 31.1389 23.8054 30.9648C24.1669 30.8283 24.5118 30.7357 24.7389 30.3985C25.4665 29.9475 26.0315 29.1655 26.0723 28.2956C25.9073 28.5615 25.7949 28.8282 25.6103 29.0792C25.3117 29.4902 24.9039 29.8353 24.4387 30.0424C23.9013 30.0635 23.3536 30.0526 22.8224 29.9616C22.4563 29.8965 22.028 29.7333 21.7923 29.4321C21.6674 29.2015 21.6147 28.9294 21.5267 28.6823C22.23 28.3639 23.1674 28.0752 23.6758 27.4681C23.9665 27.1175 23.7418 26.6069 23.3292 26.483C22.8193 26.3183 22.182 26.6234 21.6658 26.6979C21.0277 26.825 20.4313 26.7018 19.8161 26.5395C19.4334 26.4445 19.0028 26.3543 18.6602 26.6108C18.43 26.7818 18.3287 27.0807 18.452 27.3466C18.6084 27.6768 18.9958 27.8972 19.3038 28.0682C19.703 28.2791 20.121 28.4517 20.5516 28.5874C20.5052 28.8674 20.5005 29.1529 20.4534 29.4321C20.4447 29.5459 20.3127 29.6212 20.2255 29.6753C19.8774 29.8659 19.4767 29.9757 19.0791 29.9679C18.7412 29.9584 18.4394 29.8337 18.133 29.7035C17.8973 29.4282 17.649 29.1929 17.4737 28.8815C17.084 28.1725 16.8923 27.3724 16.9182 26.5638C16.9056 26.2932 16.974 25.9669 16.8656 25.7143L16.8153 25.592C17.1767 24.8507 17.6474 24.177 18.2014 23.5668C18.6681 22.9981 19.1097 22.3573 19.2158 21.6129C19.3289 20.8357 19.1953 20.0152 18.903 19.2889C18.6948 18.7697 18.3239 18.2779 17.8108 18.0292C17.3402 17.7939 16.7674 17.8277 16.3038 18.0638C15.8527 18.2991 15.4905 18.6552 15.184 19.0552C14.8603 19.4215 14.6324 19.8568 14.2938 20.2144C13.574 20.9823 12.7639 21.7761 12.1769 22.653C11.7118 23.3409 11.4195 24.2319 11.553 25.0649C11.7314 26.2516 12.723 27.2344 13.904 27.4352C13.9213 27.9191 13.926 28.3992 13.974 28.8823C13.8703 28.8768 13.7665 28.8627 13.6644 28.8454C13.4381 28.738 13.1992 28.5717 12.9407 28.5835C12.8488 28.996 13.0908 29.4353 13.1701 29.8463C12.4504 29.3647 11.8972 28.749 11.3676 28.0729C10.5284 26.9214 9.93438 25.6022 9.67036 24.2005C9.4645 23.1965 9.53443 22.1016 9.5415 21.0733C9.69865 19.2215 10.3084 17.368 11.1122 15.6982C11.4745 14.9562 11.9035 14.2604 12.3474 13.5655C12.6743 13.0204 13.1277 12.5866 13.5041 12.0729C13.9001 11.6266 14.3441 11.2258 14.7495 10.7865C15.5463 10.0438 16.4656 9.42256 17.4242 8.90724C18.3027 8.45232 19.1843 8.06563 20.1587 7.86327C20.4699 7.80444 20.7669 7.72679 21.0631 7.61384ZM24.4167 24.5237C24.4167 24.3292 24.4081 24.1346 24.4026 23.9401C24.8332 24.4107 25.1836 24.9268 25.5372 25.4539C25.8578 25.9033 26.18 26.374 26.6428 26.69C27.2329 27.1387 28.0422 27.2532 28.7447 27.0289C29.6829 26.7199 30.4254 25.9402 30.7122 24.9998C30.8537 24.5072 30.8372 23.9793 30.7201 23.4836C30.5755 22.9307 30.2887 22.4491 29.9398 22.0012C29.4142 21.3463 28.8099 20.7815 28.1994 20.2082C27.5888 19.6285 27.1897 18.896 26.5422 18.3885C26.2365 18.1312 25.8625 17.9053 25.4618 17.8434C25.1231 17.8206 24.83 17.6857 24.5079 17.5979C23.8801 17.5022 23.2287 17.9359 22.7768 18.3312C22.2496 18.8654 21.7444 19.5195 21.6509 20.2858C21.588 20.878 21.654 21.5361 21.9337 22.0702C22.3077 22.7636 22.824 23.3707 23.4369 23.8656C23.7355 24.1009 24.0568 24.3935 24.4167 24.5237Z" fill="#FEFFE8"/>
<path d="M10.6249 8.3364C10.8064 8.46111 10.9918 8.61327 10.9525 8.85721C10.903 9.17644 10.5667 9.36546 10.2925 9.47057C9.96248 9.60548 9.46195 9.69332 9.25609 10.0102C9.11936 10.2581 9.38652 10.6204 9.46431 10.8636C9.08872 11.0879 8.59919 11.1075 8.19374 11.284C8.29196 11.4871 8.55519 11.7256 8.54654 11.9523C8.18824 12.1852 7.77257 12.2307 7.44098 12.5303C7.64449 12.7939 7.92894 12.928 8.19059 13.1594C7.8095 13.3782 7.39069 13.39 7.00095 13.5696C7.02688 13.9869 7.52191 14.2716 7.69242 14.6504C7.51641 14.6332 7.34669 14.6049 7.19268 14.5139C6.74794 14.2575 6.38335 13.8653 6.20026 13.3821C5.93075 12.6746 5.88517 11.8872 6.06826 11.153C6.36292 9.73725 7.50305 8.52307 8.91507 8.17639C9.46117 8.02815 10.1354 8.01638 10.6249 8.3364Z" fill="#3B2B25"/>
<path d="M3.59606 9.84851C3.49549 10.1921 3.2959 10.4721 3.10732 10.7709C2.67279 11.4784 2.31213 12.2329 1.95147 12.9804C1.75031 13.3781 1.69609 13.7616 1.38965 14.0942C1.63481 13.2965 2.02061 12.5341 2.39699 11.7913C2.65472 11.276 2.95253 10.7842 3.25111 10.2917C3.34855 10.1301 3.47113 9.98969 3.59606 9.84851Z" fill="#CE1620"/>
<path d="M12.4089 12.0643C12.7665 12.0141 13.1373 12.0815 13.5035 12.0729C13.1271 12.5867 12.6737 13.0204 12.3469 13.5655C11.9029 14.2605 11.4739 14.9562 11.1116 15.6982C10.3078 17.3681 9.69806 19.2215 9.54091 21.0733C9.53384 22.1016 9.4639 23.1966 9.66977 24.2006C9.93379 25.6022 10.5278 26.9215 11.367 28.0729C11.8966 28.749 12.4498 29.3647 13.1695 29.8463C13.0902 29.4353 12.8482 28.9961 12.9401 28.5835C13.1986 28.5717 13.4375 28.738 13.6638 28.8455C13.784 28.9098 13.9034 28.9553 14.0355 28.989C14.096 28.6392 14.0111 28.3239 13.9985 27.9788C13.993 27.8509 14.0221 27.7419 14.103 27.6415C14.4771 27.5725 14.8322 27.6148 15.2031 27.4799C15.695 27.2995 16.1232 26.9215 16.4226 26.4963C16.5381 26.3332 16.6497 26.1685 16.7801 26.0155C16.8045 26.3677 16.773 26.7277 16.8225 27.0768L16.8783 27.1074C16.9027 26.6462 16.9161 26.1732 16.865 25.7143C16.9734 25.9669 16.9051 26.2932 16.9176 26.5638C16.8917 27.3725 17.0834 28.1725 17.4732 28.8816C17.6484 29.1929 17.8967 29.4283 18.1324 29.7036C18.2322 29.8047 18.3123 29.9459 18.4593 29.9757C18.8184 30.0699 19.2223 29.9938 19.5821 30.0432C19.0706 30.2244 18.4907 30.0989 18.0035 29.8996C17.5777 29.731 17.2571 29.411 16.9538 29.08C16.729 28.8329 16.5939 28.5482 16.3982 28.2807C16.3699 28.3247 16.344 28.3694 16.3189 28.4149L16.3008 28.4902C16.2018 28.7976 16.3385 29.058 16.469 29.3302C16.7542 29.8487 17.1573 30.291 17.7097 30.5271C18.42 30.8856 19.278 30.917 20.0442 30.753C20.4268 30.6667 20.716 30.4275 21.0696 30.2855C21.2432 30.2267 21.4719 30.3859 21.6298 30.4542C21.9677 30.6322 22.3535 30.746 22.7173 30.8691C23.0175 30.9797 23.3153 30.8573 23.6335 30.8299C23.5738 30.9507 23.4544 30.9366 23.3381 30.9632C22.9868 31.0064 22.634 31.0283 22.2828 31.0738C21.6455 31.0856 20.9313 31.0017 20.3153 31.1664C20.0552 31.237 19.7597 31.3876 19.6811 31.6652C19.6804 31.8558 19.8658 32.0401 20.0112 32.146C20.3467 32.3845 20.7482 32.5406 21.1395 32.6606C21.8718 32.8818 22.645 32.7876 23.3978 32.7963C23.5447 32.7892 23.6532 32.8621 23.7797 32.9249C22.6765 33.5273 21.2943 33.6543 20.0724 33.4159C18.761 33.1296 17.5722 32.4182 16.6497 31.4495C16.817 31.7664 17.0378 32.0699 17.1636 32.3994C15.5567 32.3225 14.0103 32.048 12.6077 31.2221C11.5611 30.6087 10.7431 29.6761 10.2143 28.589C10.0273 28.2156 9.9165 27.8501 9.66506 27.5105L9.63834 27.6384C9.53384 28.0101 9.65248 28.3184 9.69256 28.6878C9.35782 28.1874 9.24075 27.6289 9.1716 27.0407C9.16531 26.9646 9.13781 26.9066 9.0891 26.8673C9.07338 27.0328 9.07024 27.1983 9.07574 27.3638C9.04431 27.0658 9.04509 26.7662 9.00973 26.4689C8.54849 27.174 8.63335 28.2321 8.73079 29.0282C8.43377 28.789 8.25069 28.3866 8.08411 28.0501C7.69594 27.1576 7.55529 26.1301 7.78709 25.1771C7.9631 24.4931 8.11947 23.8476 8.5202 23.2538L8.642 23.3378C8.74729 23.1558 8.77479 23.0452 8.55792 22.9417C7.99296 23.2272 7.73287 23.7025 7.32035 24.1347C7.27085 23.5519 7.44057 23.0538 7.55608 22.4938C7.62758 22.1401 7.74466 21.8004 7.84131 21.453C8.07389 20.5165 8.37248 19.5948 8.68757 18.6826C9.18574 17.4245 9.63756 16.1915 10.3424 15.0111C10.8288 14.0361 11.4872 13.1302 12.1426 12.2619C12.2203 12.1686 12.2769 12.0784 12.4089 12.0643Z" fill="#CE1620"/>
<path d="M5.95477 14.6254C6.37437 15.0999 6.77118 15.5509 7.34478 15.8458C7.74552 16.0764 8.17847 16.1596 8.62636 16.2451C8.57214 16.5062 8.42756 16.7572 8.32384 17.0027C7.20963 19.6805 6.56138 22.425 6.00192 25.2596C5.97756 25.1168 5.92806 24.9906 5.95713 24.8439C6.07735 24.0305 6.25336 23.2242 6.46787 22.4304C6.65174 21.8688 6.75468 21.2869 6.93461 20.7245C7.03283 20.4272 7.08862 20.1221 7.14991 19.817C7.20334 19.5354 7.33771 19.3025 7.43829 19.0366C7.71173 18.1895 8.05825 17.3737 8.31598 16.5188C8.21855 16.3298 7.92703 16.2576 7.74866 16.1635C7.1397 15.9384 6.59045 15.5533 6.15671 15.0709C6.03335 14.9438 6.00585 14.7885 5.95477 14.6254Z" fill="#CE1620"/>
<path d="M24.5078 17.5979C24.83 17.6857 25.1231 17.8207 25.4617 17.8434C25.0641 17.7893 24.6689 17.8434 24.3405 18.0858C23.7166 18.5281 23.414 19.2576 23.2538 19.9808C23.0927 20.7682 23.0306 21.62 23.3551 22.3769C23.5901 22.9785 23.9798 23.4625 24.4025 23.9402C24.408 24.1347 24.4167 24.3292 24.4167 24.5237C24.0568 24.3935 23.7354 24.101 23.4368 23.8656C22.8239 23.3707 22.3077 22.7636 21.9337 22.0703C21.6539 21.5361 21.5879 20.8781 21.6508 20.2859C21.7443 19.5196 22.2495 18.8654 22.7768 18.3313C23.2286 17.936 23.88 17.5022 24.5078 17.5979Z" fill="#CE1620"/>
<path d="M17.8107 18.0295C18.3238 18.2781 18.6946 18.7699 18.9029 19.2891C19.1952 20.0154 19.3288 20.8359 19.2156 21.6132C19.1095 22.3575 18.6679 22.9983 18.2012 23.567C17.6472 24.1772 17.1766 24.851 16.8151 25.5922C16.4898 26.1546 16.1991 26.6785 15.6545 27.0644C15.1572 27.4142 14.5623 27.5491 13.962 27.4417C14.6063 27.1405 15.0141 26.5248 15.2232 25.8643C14.9694 25.8706 14.681 25.9381 14.4335 25.8714C13.9329 25.7067 13.5228 25.3122 13.3978 24.7937C13.203 24.1239 13.3633 23.5082 13.5644 22.8642C13.8025 22.1348 14.2433 21.5379 14.692 20.9269C15.187 20.2962 15.4565 19.446 15.7418 18.6969C15.5642 18.8358 15.3984 18.9762 15.1839 19.0554C15.4903 18.6554 15.8526 18.2993 16.3036 18.064C16.7672 17.8279 17.34 17.7942 17.8107 18.0295ZM14.9654 23.6752C14.9686 23.3568 14.9301 23.0658 15.0393 22.7575C15.1854 22.3363 15.4172 21.8893 15.818 21.6579C16.1504 21.4594 16.621 21.3645 16.9864 21.519C17.428 21.7269 17.7462 22.2399 18.1501 22.4893C18.1509 22.0814 17.9427 21.6783 17.6716 21.3833C17.1907 20.9002 16.3979 20.8861 15.8172 21.1873C15.2884 21.461 14.9018 22.0022 14.7533 22.5716C14.6519 22.9591 14.7596 23.3434 14.9654 23.6752ZM16.7153 21.77C16.6564 21.9387 16.6784 22.0744 16.7428 22.2359C16.9542 22.2642 17.1294 22.1042 17.0933 21.8908C17.0273 21.7206 16.8623 21.7622 16.7153 21.77ZM17.6213 22.4579C17.5207 22.6116 17.461 22.8069 17.2881 22.8948C16.9267 23.0862 16.4348 23.0681 16.1574 22.7395C15.9901 22.5599 16.0089 22.3034 15.9736 22.0759C15.6263 22.2736 15.5602 22.8101 15.7622 23.1317C15.9665 23.4987 16.4049 23.6242 16.801 23.5882C17.2481 23.5607 17.6221 23.1826 17.8028 22.7983C17.7745 22.6744 17.6944 22.5599 17.6213 22.4579Z" fill="#201414"/>
<path d="M25.4618 17.8435C25.8625 17.9055 26.2365 18.1314 26.5422 18.3887C26.5131 18.4318 26.4848 18.4757 26.4581 18.5196C26.554 18.7448 26.7135 18.9369 26.7936 19.1722C26.9209 19.5322 27.0443 19.8907 27.2337 20.2248C27.4812 20.7088 27.8662 21.0507 28.1577 21.5072C28.7345 22.3551 29.1902 23.2422 29.2271 24.2893C29.2986 25.0627 28.597 25.8408 27.8073 25.7992C27.3115 25.8306 26.8934 25.6667 26.4455 25.4902C26.2067 25.3623 26.0778 25.6784 26.0794 25.8651C26.1116 26.1977 26.6192 26.3577 26.6428 26.6902C26.18 26.3741 25.8578 25.9035 25.5372 25.4541C25.1836 24.927 24.8332 24.4109 24.4026 23.9403C23.9798 23.4626 23.5901 22.9787 23.3552 22.3771C23.0306 21.6202 23.0927 20.7684 23.2538 19.9809C23.4141 19.2577 23.7166 18.5283 24.3405 18.0859C24.6689 17.8435 25.0642 17.7894 25.4618 17.8435ZM24.1236 22.3975C24.5857 22.1794 24.8921 21.679 25.3659 21.4633C25.6252 21.3668 25.9403 21.4037 26.1933 21.5041C26.6216 21.6876 26.9311 22.1394 27.1103 22.5528C27.2659 22.8995 27.236 23.2367 27.2557 23.6046C27.449 23.3246 27.5503 22.9834 27.4875 22.6445C27.3625 21.9441 26.8659 21.2978 26.1933 21.0445C25.6661 20.8649 25.0139 20.9111 24.6234 21.3488C24.3814 21.6249 24.1888 22.0367 24.1236 22.3975ZM25.2433 22.1394C25.362 22.2037 25.4523 22.1779 25.5734 22.1386C25.6614 22.021 25.5466 21.6767 25.3785 21.6986C25.1883 21.7841 25.1514 21.9614 25.2433 22.1394ZM24.6438 22.4767C24.5503 22.5426 24.4646 22.61 24.4199 22.7191C24.6171 23.1834 25.0783 23.5732 25.6048 23.5466C25.9827 23.5411 26.3568 23.3732 26.5328 23.0257C26.6734 22.7073 26.5823 22.3269 26.3764 22.0579C26.2664 22.2704 26.2122 22.5238 26.0723 22.7175C25.8295 22.9983 25.362 23.0469 25.0375 22.8908C24.8434 22.7983 24.7742 22.6336 24.6438 22.4767Z" fill="#201414"/>
<path d="M35.5645 17.9393C35.8269 18.2272 35.8913 18.5676 36.0202 18.9213C36.1931 19.4249 36.3298 19.9418 36.4437 20.4618C36.5757 21.083 36.7219 21.6956 36.784 22.3293C36.8232 22.7992 36.9403 23.2172 36.8012 23.6847C36.7234 23.0031 36.681 22.3239 36.5592 21.6462C36.4036 20.7803 36.2143 19.9026 35.9416 19.0649C35.8143 18.69 35.6737 18.3205 35.5645 17.9393Z" fill="#CE1620"/>
<path d="M26.5419 18.3887C27.1894 18.8961 27.5886 19.6287 28.1991 20.2084C28.8096 20.7817 29.4139 21.3465 29.9396 22.0014C30.2884 22.4493 30.5752 22.9309 30.7198 23.4838C30.8369 23.9795 30.8534 24.5074 30.712 25C30.4252 25.9404 29.6826 26.7201 28.7444 27.0291C28.0419 27.2534 27.2326 27.1389 26.6425 26.6902C26.6189 26.3577 26.1113 26.1977 26.0791 25.8651C26.0775 25.6784 26.2064 25.3623 26.4453 25.4902C26.8932 25.6667 27.3112 25.8306 27.807 25.7992C28.5967 25.8408 29.2984 25.0627 29.2269 24.2893C29.1899 23.2422 28.7342 22.3551 28.1575 21.5073C27.8659 21.0508 27.4809 20.7088 27.2334 20.2248C27.044 19.8907 26.9207 19.5323 26.7934 19.1722C26.7132 18.9369 26.5537 18.7448 26.4579 18.5197C26.4846 18.4757 26.5129 18.4318 26.5419 18.3887Z" fill="#3B2B25"/>
<path d="M15.7419 18.6969C15.4566 19.446 15.1871 20.2962 14.6921 20.9268C14.2434 21.5378 13.8026 22.1347 13.5645 22.8642C13.3634 23.5081 13.2031 24.1238 13.3979 24.7937C13.5229 25.3121 13.9331 25.7066 14.4336 25.8714C14.6811 25.938 14.9695 25.8706 15.2233 25.8643C15.0143 26.5247 14.6064 27.1404 13.9621 27.4416L13.904 27.4354C12.723 27.2346 11.7313 26.2518 11.553 25.065C11.4194 24.2321 11.7117 23.341 12.1769 22.6532C12.7638 21.7763 13.574 20.9825 14.2937 20.2146C14.6324 19.857 14.8602 19.4216 15.184 19.0553C15.3985 18.9761 15.5643 18.8357 15.7419 18.6969Z" fill="#3B2B25"/>
<path d="M41.8324 19.0074C42.0791 20.7471 42.0336 22.5449 41.8285 24.2877C41.3853 27.8259 40.0126 31.2418 37.8557 34.0874C36.0838 36.4122 33.8389 38.4139 31.2797 39.8398C29.3671 40.9144 27.2856 41.6666 25.1342 42.094C24.3115 42.2619 23.4692 42.345 22.6347 42.4321C21.8246 42.4862 21.0184 42.5325 20.2067 42.4705C18.6038 42.4337 17.022 42.1748 15.4717 41.7725C11.8164 40.7748 8.43525 38.7754 5.80295 36.0537C5.48943 35.7267 5.18377 35.409 4.91504 35.0427C5.56015 35.3039 5.84695 36.0388 6.35691 36.4451C6.87237 36.8875 7.35954 37.4138 7.92843 37.7785C8.37946 38.0837 8.79277 38.4382 9.25244 38.7339C10.1011 39.2868 10.9709 39.8484 11.8997 40.2579C12.742 40.6814 13.6268 41.0352 14.5265 41.3191C14.9468 41.4595 15.3602 41.6085 15.7955 41.7019C16.8696 41.9364 17.9037 42.1764 19.0069 42.2446C20.2319 42.3819 21.4655 42.4031 22.6929 42.2776C23.4503 42.2376 24.1874 42.0862 24.9362 41.9819C25.8838 41.8187 26.8157 41.5442 27.7312 41.2516C28.7723 40.9167 29.7859 40.4759 30.7422 39.9481C30.7265 39.9112 30.7108 39.8751 30.695 39.8382C30.8781 39.81 31.0479 39.799 31.2081 39.6939C31.5209 39.5049 31.847 39.3441 32.1526 39.1441C32.6712 38.7692 33.2134 38.4335 33.7281 38.0515C34.3386 37.5919 34.9107 37.0875 35.4473 36.5448C36.1467 35.8843 36.791 35.1612 37.4157 34.4309C37.8007 33.8631 38.1692 33.2724 38.6249 32.7399C38.8481 32.4716 38.9942 32.1704 39.1663 31.87C40.0629 30.3829 40.6993 28.7224 41.1669 27.0549C41.3075 26.527 41.4002 25.989 41.5338 25.4595C41.6839 24.6328 41.7829 23.7983 41.8363 22.959C41.867 21.9895 41.8701 21.0201 41.8434 20.0506C41.8324 19.6836 41.7067 19.3706 41.8324 19.0074Z" fill="#CE1620"/>
<path d="M17.6718 21.3833C17.9429 21.6783 18.1511 22.0814 18.1503 22.4893C17.7464 22.2399 17.4282 21.7269 16.9866 21.519C16.6212 21.3645 16.1505 21.4594 15.8182 21.6579C15.4174 21.8893 15.1856 22.3363 15.0395 22.7575C14.9303 23.0658 14.9688 23.3568 14.9656 23.6752C14.7598 23.3434 14.6521 22.9591 14.7535 22.5716C14.902 22.0022 15.2886 21.461 15.8174 21.1873C16.3981 20.8861 17.1909 20.9002 17.6718 21.3833Z" fill="#FEFFE8"/>
<path d="M26.1937 21.0444C26.8663 21.2978 27.3629 21.9441 27.4879 22.6445C27.5507 22.9833 27.4494 23.3245 27.2561 23.6045C27.2364 23.2367 27.2663 22.8994 27.1107 22.5527C26.9315 22.1394 26.622 21.6876 26.1937 21.504C25.9407 21.4036 25.6256 21.3668 25.3663 21.4633C24.8925 21.679 24.5861 22.1794 24.124 22.3974C24.1892 22.0366 24.3818 21.6248 24.6238 21.3487C25.0143 20.9111 25.6665 20.8648 26.1937 21.0444Z" fill="#FEFFE8"/>
<path d="M25.3786 21.6985C25.5468 21.6766 25.6615 22.0209 25.5735 22.1385C25.4525 22.1778 25.3621 22.2036 25.2434 22.1393C25.1515 21.9613 25.1884 21.784 25.3786 21.6985Z" fill="#FEFFE8"/>
<path d="M16.715 21.77C16.8619 21.7622 17.0269 21.7206 17.093 21.8908C17.1291 22.1042 16.9539 22.2642 16.7425 22.2359C16.6781 22.0743 16.6561 21.9387 16.715 21.77Z" fill="#FEFFE8"/>
<path d="M15.9742 22.0756C16.0096 22.303 15.9907 22.5595 16.1581 22.7391C16.4355 23.0678 16.9274 23.0858 17.2888 22.8944C17.4617 22.8066 17.5214 22.6113 17.622 22.4575C17.695 22.5595 17.7752 22.674 17.8035 22.7979C17.6228 23.1823 17.2487 23.5603 16.8016 23.5878C16.4056 23.6239 15.9672 23.4984 15.7629 23.1313C15.5609 22.8097 15.6269 22.2732 15.9742 22.0756Z" fill="#FEFFE8"/>
<path d="M26.3765 22.0577C26.5823 22.3268 26.6735 22.7072 26.5328 23.0256C26.3568 23.3731 25.9828 23.5409 25.6048 23.5464C25.0784 23.5731 24.6171 23.1833 24.4199 22.7189C24.4647 22.6099 24.5504 22.5425 24.6439 22.4766C24.7743 22.6335 24.8434 22.7982 25.0375 22.8907C25.362 23.0468 25.8296 22.9982 26.0724 22.7174C26.2122 22.5236 26.2665 22.2703 26.3765 22.0577Z" fill="#FEFFE8"/>
<path d="M36.8425 23.7347L36.9156 23.7543C36.9808 24.2406 36.9596 24.7442 36.9361 25.2329C36.8638 25.9474 36.8166 26.6306 36.5817 27.309C36.4528 27.6706 36.3357 28.0361 36.0717 28.3248L35.9971 28.2346C36.5667 27.4157 36.6901 26.3694 36.7907 25.4023C36.8606 24.8462 36.7938 24.2901 36.8425 23.7347Z" fill="#CE1620"/>
<path d="M6.87793 24.7394C6.93608 24.7747 6.99501 24.8092 7.05394 24.8437C6.98244 24.9598 6.9015 25.0657 6.80957 25.1661C6.82214 25.0217 6.84493 24.8813 6.87793 24.7394Z" fill="#CE1620"/>
<path d="M5.88447 25.2949C5.91826 25.3522 5.95048 25.411 5.97955 25.4706C5.8609 26.1593 5.70768 26.8707 5.65189 27.5766C6.08877 27.0895 6.45336 26.5287 6.91618 26.0667C6.8981 26.4401 6.98297 26.9115 6.63959 27.164C5.49866 28.2119 4.70898 29.5516 4.20137 31.005C4.11023 31.227 4.22259 31.3776 4.32867 31.5635C5.70611 33.8192 7.55343 35.8013 9.71977 37.3206C11.758 38.7418 14.0815 39.8156 16.5103 40.3592C19.7123 41.1239 23.0887 41.0219 26.2592 40.1584C28.1576 39.6219 29.9743 38.8265 31.6346 37.7606C32.7708 37.0131 33.8355 36.1527 34.8059 35.2005C35.1328 34.8899 35.396 34.5314 35.7449 34.2452C35.7009 34.3361 35.6601 34.431 35.6074 34.5173C35.0888 35.2381 34.4421 35.7244 33.7986 36.3158C32.9036 37.0641 31.9599 37.7496 30.9541 38.3434C28.8562 39.5136 26.5932 40.3513 24.2163 40.7341C23.3496 40.9027 22.4758 40.9576 21.5981 41.0282C20.9766 41.0329 20.3755 41.0565 19.7634 40.9796C17.9317 40.8627 16.1245 40.4878 14.3911 39.8886C13.5747 39.5701 12.7583 39.2375 11.9725 38.8485C11.2088 38.4195 10.4364 37.9889 9.71977 37.4837C8.89629 36.9261 8.15689 36.2719 7.39627 35.635C7.29413 35.537 7.22498 35.5754 7.10397 35.595C7.0914 35.4923 7.11812 35.3668 7.04661 35.286C6.84389 35.046 6.59009 34.8499 6.37872 34.6169C6.16656 34.4012 5.99998 34.1534 5.82004 33.9118C5.6621 33.7008 5.46409 33.5479 5.29437 33.351C5.12071 33.1251 5.00049 32.8741 4.80562 32.6608C4.60683 32.4176 4.51018 32.129 4.33495 31.8701C4.22259 31.6874 4.0733 31.4819 4.04658 31.2654C4.03165 31.0521 4.12044 30.8215 4.19587 30.6238C4.37031 30.1995 4.54082 29.7806 4.76869 29.3806C4.97221 29.0253 5.11521 28.6323 5.35644 28.3092C5.45702 28.168 5.58588 28.0386 5.66996 27.8872C5.62046 27.7013 5.48609 27.5084 5.47981 27.3146C5.49159 27.0174 5.59453 26.7083 5.64324 26.4111C5.72811 26.0204 5.73439 25.6683 5.88447 25.2949Z" fill="#CE1620"/>
<path d="M16.815 25.5923L16.8652 25.7146C16.9163 26.1735 16.903 26.6465 16.8786 27.1077L16.8228 27.0771C16.7733 26.728 16.8047 26.368 16.7804 26.0158C16.65 26.1688 16.5384 26.3335 16.4229 26.4966C16.1235 26.9218 15.6953 27.2998 15.2034 27.4802C14.8325 27.6151 14.4773 27.5728 14.1033 27.6418C14.0224 27.7422 13.9933 27.8512 13.9988 27.9791C14.0114 28.3242 14.0962 28.6395 14.0357 28.9893C13.9037 28.9556 13.7843 28.9101 13.6641 28.8458C13.7662 28.863 13.8699 28.8771 13.9737 28.8826C13.9257 28.3995 13.921 27.9195 13.9037 27.4355L13.9619 27.4418C14.5622 27.5492 15.157 27.4143 15.6544 27.0645C16.1989 26.6786 16.4897 26.1547 16.815 25.5923Z" fill="#CE1620"/>
<path d="M19.8165 26.5393C20.4317 26.7016 21.0281 26.8248 21.6661 26.6977C22.1824 26.6232 22.8196 26.3181 23.3296 26.4828C23.7421 26.6067 23.9668 27.1173 23.6761 27.4679C23.1677 28.075 22.2303 28.3637 21.5271 28.6821C21.3943 28.7441 21.4343 29.0288 21.4406 29.1496C21.4642 29.4704 21.6017 29.7214 21.8822 29.8861C22.6067 30.3238 23.6683 30.3849 24.4391 30.0422C24.9043 29.8351 25.3121 29.49 25.6107 29.079C25.7953 28.828 25.9077 28.5613 26.0727 28.2954C26.0318 29.1653 25.4669 29.9473 24.7392 30.3983C24.3723 30.5285 24.0321 30.6673 23.6384 30.6955C22.8935 30.7559 22.0535 30.6242 21.4422 30.1708C21.3621 30.1151 21.2827 30.0594 21.1978 30.0116C20.9377 30.1347 20.7154 30.323 20.4474 30.4351C19.5682 30.8148 18.4972 30.7991 17.647 30.3489C16.9343 29.9583 16.4888 29.268 16.3018 28.49L16.3198 28.4147C16.5666 28.7911 16.7677 29.1708 17.104 29.4814C18.0021 30.3716 19.5446 30.5057 20.5834 29.7873C20.9417 29.5865 20.9692 29.0492 20.882 28.7002C20.7743 28.6547 20.6635 28.6209 20.5519 28.5872C20.1213 28.4515 19.7033 28.279 19.3041 28.068C18.9961 27.897 18.6087 27.6766 18.4524 27.3464C18.329 27.0805 18.4304 26.7816 18.6606 26.6106C19.0032 26.3542 19.4338 26.4444 19.8165 26.5393Z" fill="#201414"/>
<path d="M35.7174 26.5013C35.7645 26.5366 35.792 26.5861 35.8007 26.648C35.8989 27.1524 35.9814 27.6528 35.9704 28.1681C35.8486 27.8991 35.8337 27.5704 35.7794 27.2802C35.6561 27.4865 35.5445 27.7085 35.4824 27.9414C35.4557 28.0449 35.4518 28.1195 35.5036 28.2159C35.6655 28.5305 35.946 28.7509 36.1433 29.056C36.6202 29.8011 36.9982 30.5964 37.3101 31.4239C37.3667 31.6059 37.4233 31.7792 37.4138 31.973C37.395 32.133 37.3015 32.2906 37.2197 32.4271C36.9062 32.9173 36.5636 33.3872 36.199 33.8413C36.0914 33.9801 35.9507 34.0703 35.8054 34.1652C36.2705 33.4609 36.8685 32.8507 37.2606 32.0789C37.3541 31.9259 37.2614 31.7581 37.2119 31.6067C36.8198 30.6631 36.3939 29.7611 35.8282 28.9062C35.6545 28.6395 35.429 28.4003 35.2773 28.1202C35.3284 27.9116 35.4392 27.7179 35.5099 27.5147C35.6396 27.1829 35.6639 26.8488 35.7174 26.5013Z" fill="#CE1620"/>
<path d="M9.09009 26.8672C9.1388 26.9064 9.16631 26.9644 9.17259 27.0405C9.24174 27.6288 9.35882 28.1872 9.69355 28.6877C9.65348 28.3182 9.53483 28.01 9.63933 27.6382C9.75405 28.2327 9.91121 28.8155 10.0464 29.4053C9.49082 28.8696 9.16473 28.1245 9.07673 27.3637C9.07123 27.1982 9.07437 27.0327 9.09009 26.8672Z" fill="#CE1620"/>
<path d="M16.3987 28.2808C16.5944 28.5482 16.7295 28.8329 16.9542 29.08C17.2575 29.411 17.5781 29.731 18.004 29.8997C18.4912 30.0989 19.0711 30.2244 19.5826 30.0432C19.2227 29.9938 18.8188 30.0699 18.4597 29.9757C18.3128 29.9459 18.2327 29.8048 18.1329 29.7036C18.4393 29.8338 18.741 29.9585 19.0789 29.9679C19.4765 29.9757 19.8773 29.8659 20.2253 29.6753C20.3126 29.6212 20.4446 29.5459 20.4532 29.4322C20.5004 29.153 20.5051 28.8675 20.5514 28.5874C20.663 28.6212 20.7738 28.6549 20.8815 28.7004C20.9687 29.0494 20.9412 29.5867 20.5829 29.7875C19.5441 30.506 18.0016 30.3718 17.1035 29.4816C16.7672 29.171 16.5661 28.7914 16.3193 28.4149C16.3445 28.3694 16.3704 28.3247 16.3987 28.2808Z" fill="#CE1620"/>
<path d="M16.3015 28.4904C16.4885 29.2684 16.934 29.9587 17.6467 30.3493C18.4969 30.7995 19.5679 30.8152 20.4471 30.4355C20.7151 30.3234 20.9375 30.1351 21.1975 30.012C21.2824 30.0598 21.3618 30.1155 21.4419 30.1712C22.0532 30.6246 22.8932 30.7563 23.6381 30.696C24.0318 30.6677 24.372 30.5289 24.739 30.3987C24.5119 30.736 24.1669 30.8285 23.8055 30.965C23.2987 31.1391 22.8084 31.1085 22.2835 31.074C22.6347 31.0285 22.9875 31.0066 23.3387 30.9634C23.455 30.9367 23.5745 30.9509 23.6342 30.8301C23.316 30.8575 23.0182 30.9799 22.718 30.8693C22.3542 30.7462 21.9684 30.6324 21.6305 30.4544C21.4726 30.3861 21.2439 30.2269 21.0703 30.2857C20.7167 30.4277 20.4275 30.6669 20.0448 30.7532C19.2787 30.9171 18.4207 30.8858 17.7103 30.5273C17.158 30.2912 16.7549 29.8489 16.4696 29.3304C16.3392 29.0582 16.2025 28.7978 16.3015 28.4904Z" fill="#CE1620"/>
<path d="M21.5267 28.6825C21.6147 28.9296 21.6673 29.2017 21.7922 29.4323C22.028 29.7335 22.4562 29.8967 22.8224 29.9618C23.3536 30.0528 23.9012 30.0637 24.4387 30.0426C23.6679 30.3853 22.6063 30.3241 21.8818 29.8865C21.6013 29.7218 21.4638 29.4708 21.4402 29.15C21.4339 29.0292 21.3939 28.7445 21.5267 28.6825Z" fill="#CE1620"/>
<path d="M30.8926 29.9414C30.5359 30.4701 30.0078 30.892 29.4609 31.2136C29.6644 30.8983 29.9976 30.7281 30.2113 30.4269L30.0825 30.3799C30.3402 30.2034 30.5909 30.0355 30.8926 29.9414Z" fill="#CE1620"/>
<path d="M34.574 29.9121C34.7013 30.4047 34.5379 30.9286 34.7092 31.4298C34.8176 31.2988 34.9213 31.1043 35.0816 31.0353C35.1099 31.2941 35.106 31.553 35.0903 31.8126C35.0196 32.695 34.8946 33.5429 34.4955 34.3437C34.3328 34.6621 34.1764 35.1743 33.8213 35.3194C33.5054 35.4269 33.1196 35.4763 32.7974 35.3767C32.9341 35.2551 33.0819 35.1477 33.2202 35.0284C32.7904 34.9029 32.3448 34.9021 31.915 34.779C31.0798 34.5437 30.2618 34.2017 29.4768 33.8354C29.1224 33.6723 28.7759 33.5633 28.4482 33.3452C30.3804 32.9523 32.3417 32.0973 33.7733 30.7192C34.0539 30.4619 34.2864 30.1592 34.574 29.9121Z" fill="#3B2B25"/>
<path d="M30.0824 30.3796L30.2113 30.4267C29.9976 30.7279 29.6644 30.8981 29.4609 31.2134C28.2634 32.0425 26.7084 32.3052 25.2822 32.3844C25.3804 32.1499 25.5156 31.9421 25.6625 31.7366C26.563 31.5703 27.4973 31.4009 28.3703 31.1201C28.9502 30.9052 29.5418 30.6808 30.0824 30.3796Z" fill="#CE1620"/>
<path d="M9.24045 31.5993C9.84862 31.8527 10.434 32.1711 11.0005 32.506C12.686 33.4841 14.553 34.1281 16.4789 34.4238C17.5656 34.6081 18.6892 34.6575 19.7901 34.6567C20.6505 34.6614 21.5124 34.594 22.3626 34.4646C23.0188 34.3673 23.6866 34.3257 24.3498 34.3281C24.8574 34.3234 25.2927 34.4802 25.7964 34.3289C27.3263 34.4999 28.897 35.1579 30.0647 36.165C30.1079 36.2717 30.137 36.376 30.2265 36.4552C30.5243 36.7478 30.8677 37.0529 31.1129 37.3957C30.8544 37.6859 30.4685 37.8765 30.1315 38.0616C29.1799 38.5471 28.1741 38.9056 27.133 39.1416C26.1327 39.3417 25.1285 39.5903 24.122 39.7542C22.2723 40.0295 20.377 40.0727 18.5211 39.8389C16.7562 39.6123 15.0606 39.0977 13.4254 38.4067C13.0671 38.2514 12.7221 38.0679 12.3693 37.8969C11.648 37.5604 10.9825 37.0859 10.3264 36.6372C9.1603 35.7917 8.06181 34.7242 7.42377 33.4175C7.20297 32.9751 7.13147 32.4825 7.33576 32.019C7.45206 31.7389 7.71686 31.5978 7.98559 31.4942C8.40518 31.3428 8.84128 31.4393 9.24045 31.5993Z" fill="#3B2B25"/>
<path d="M28.7625 34.5489C29.6253 34.9779 30.5046 35.6548 30.9336 36.538C31.0373 36.7647 31.1701 36.9945 31.1505 37.251C30.8032 36.8682 30.4794 36.4784 30.0638 36.1654C28.8961 35.1583 27.3254 34.5002 25.7955 34.3292C25.207 34.2587 24.6255 34.1998 24.0323 34.2022C23.586 34.199 23.1428 34.239 22.6973 34.2257C23.2041 34.0932 23.7227 34.0006 24.2405 33.9206C25.7837 33.7324 27.3568 33.8406 28.7625 34.5489Z" fill="#FEFFE8"/>
</svg>
